<svg xmlns="http://www.w3.org/2000/svg" width="60" height="61" viewBox="0 0 60 61" fill="none">
<rect x="29.8428" y="9.84229" width="6.99922" height="0.307658" fill="white"/>
<rect x="9.22974" y="32.2632" width="6.99922" height="0.307658" transform="rotate(-90 9.22974 32.2632)" fill="white"/>
<rect x="50.4559" y="36.5317" width="6.99922" height="0.307658" transform="rotate(-90 50.4559 36.5317)" fill="white"/>
<rect x="24.3819" y="51.0688" width="6.99922" height="0.307658" fill="white"/>
<path fill-rule="evenodd" clip-rule="evenodd" d="M39.3784 41.8389H39.6898C40.4808 46.5541 44.2024 50.2757 48.9177 51.0668V51.3781C44.2024 52.1692 40.4808 55.8908 39.6898 60.606H39.3784C38.5873 55.8908 34.8658 52.1692 30.1505 51.3781V51.0668C34.8658 50.2757 38.5873 46.5541 39.3784 41.8389Z" fill="white"/>
<path fill-rule="evenodd" clip-rule="evenodd" d="M9.22788 30.7632H9.53926C10.3303 35.4784 14.0519 39.2 18.7671 39.9911V40.3024C14.0519 41.0935 10.3303 44.8151 9.53926 49.5303H9.22788C8.43681 44.8151 4.71525 41.0935 0 40.3024V39.9911C4.71525 39.2 8.43681 35.4784 9.22788 30.7632Z" fill="white"/>
<path fill-rule="evenodd" clip-rule="evenodd" d="M50.4541 11.6885H50.7655C51.5565 16.4037 55.2781 20.1253 59.9933 20.9164V21.2277C55.2781 22.0188 51.5565 25.7404 50.7655 30.4556H50.4541C49.663 25.7404 45.9415 22.0188 41.2262 21.2277V20.9164C45.9415 20.1253 49.663 16.4037 50.4541 11.6885Z" fill="white"/>
<path fill-rule="evenodd" clip-rule="evenodd" d="M20.3036 0.612793H20.6149C21.406 5.32804 25.1276 9.04961 29.8428 9.84069V10.152C25.1276 10.9431 21.406 14.6647 20.6149 19.3799H20.3036C19.5125 14.6647 15.7909 10.9431 11.0757 10.152V9.84069C15.7909 9.04961 19.5125 5.32804 20.3036 0.612793Z" fill="white"/>
<path fill-rule="evenodd" clip-rule="evenodd" d="M39.4379 4.2041H39.6301C40.1184 7.11475 42.4156 9.41202 45.3263 9.90034V10.0925C42.4156 10.5808 40.1184 12.8781 39.6301 15.7888H39.4379C38.9495 12.8781 36.6523 10.5808 33.7416 10.0925V9.90034C36.6523 9.41202 38.9495 7.11475 39.4379 4.2041Z" fill="white"/>
<path fill-rule="evenodd" clip-rule="evenodd" d="M9.28735 15.2798H9.47956C9.96787 18.1904 12.2651 20.4877 15.1758 20.976V21.1682C12.2651 21.6565 9.96787 23.9538 9.47956 26.8644H9.28735C8.79903 23.9538 6.50178 21.6565 3.59113 21.1682V20.976C6.50178 20.4877 8.79903 18.1904 9.28735 15.2798Z" fill="white"/>
<path fill-rule="evenodd" clip-rule="evenodd" d="M50.5135 34.3545H50.7058C51.1941 37.2651 53.4913 39.5624 56.402 40.0507V40.2429C53.4913 40.7312 51.1941 43.0285 50.7058 45.9391H50.5135C50.0252 43.0285 47.728 40.7312 44.8173 40.2429V40.0507C47.728 39.5624 50.0252 37.2651 50.5135 34.3545Z" fill="white"/>
<path fill-rule="evenodd" clip-rule="evenodd" d="M20.3631 45.4302H20.5553C21.0436 48.3408 23.3409 50.6381 26.2515 51.1264V51.3186C23.3409 51.8069 21.0436 54.1042 20.5553 57.0148H20.3631C19.8748 54.1042 17.5775 51.8069 14.6669 51.3186V51.1264C17.5775 50.6381 19.8748 48.3408 20.3631 45.4302Z" fill="white"/>
</svg>
