<?xml version="1.0" encoding="utf-8"?>
<svg viewBox="695.7561 14.2661 490 427.6" width="490" height="427.6" xmlns="http://www.w3.org/2000/svg">
  <g transform="matrix(1, 0, 0, 1, 695.7560528480416, 14.266063902766462)">
    <g>
      <path
        class="st2"
        d="M391.9,170H214.8c-24.9,0-45,20.1-45,45s20.1,45,45,45H340L391.9,170z"
        style="fill: rgb(255, 255, 255)"
      />
    </g>
    <path
      class="st2"
      d="M214.9,0C96.4,0,0,96.4,0,215v9.7c0,93.9,60.6,173.7,144.6,202.9l43.1-74.7l-34-19.4 c-38-21.4-63.7-62.1-63.7-108.8V215c0-68.9,56-125,124.9-125H438l52-90H214.9z"
      style="fill: rgb(255, 255, 255)"
    />
  </g>
</svg>
