<svg xmlns="http://www.w3.org/2000/svg" viewBox="0 0 24 24" id="fly-dot-io"><linearGradient id="a" x1="12.006" x2="12.006" y1="6.833" y2="23.846" gradientUnits="userSpaceOnUse"><stop offset="0" stop-color="#5b88f9"></stop><stop offset="1" stop-color="#815dee"></stop></linearGradient><path fill="url(#a)" d="M12.271 20.053c-.129-.117-.152-.131-.307-.131-.132.042-.15.071-.256.169-.545.511-1.437 1.472-1.483 2.231-.055.89.627 1.673 1.77 1.678.929.005 1.707-.525 1.789-1.453 0-.042.005-.079.005-.117.024-.816-.928-1.829-1.518-2.377z"></path><linearGradient id="b" x1="12" x2="12" y1="6.833" y2="23.846" gradientUnits="userSpaceOnUse"><stop offset="0" stop-color="#5b88f9"></stop><stop offset="1" stop-color="#815dee"></stop></linearGradient><path fill="url(#b)" d="M18.406 3.155C17.66 1.949 16.64 1.251 15.51.712A9.128 9.128 0 0 0 12.006 0C9.988 0 8.749.619 8.295.811 5.842 2.12 4.434 4.089 4.502 7.435c.325 3.853 4.438 8.25 7.127 10.959.078.075.206.211.284.239l.151.005c.096-.033.082-.023.16-.098 2.393-2.306 6.437-6.834 7.132-10.111.322-1.837.143-3.399-.95-5.274zm-6.639 13.34c-1.281-2.395-2.983-6.127-3.17-8.859-.155-2.227.521-6.15 3.17-6.408v15.267zm6.492-8.056c-.751 2.662-3.536 5.999-5.439 7.982 1.272-2.433 2.983-6.248 3.074-8.995.073-2.152-.448-4.959-2.196-6.159 4.064.857 5.285 4.597 4.561 7.172z"></path></svg>