<svg width="150" height="150" viewBox="0 0 150 150" fill="none" xmlns="http://www.w3.org/2000/svg">
<path opacity="0.8" d="M24 23.3607C24 17.0863 29.1239 12 35.4444 12H115.556C121.876 12 127 17.0863 127 23.3607V126.639C127 132.914 121.876 138 115.556 138H35.4444C29.1239 138 24 132.914 24 126.639V23.3607Z" fill="#6762A6"/>
<path d="M88.5195 120.944V70.7765C88.5195 70.7765 91.8167 58.7711 47.9057 75.6877C47.8252 75.9024 47.8252 29.2971 47.8252 29.2971L62.1728 29.2095V59.0701C62.1728 59.0701 102.345 43.4113 102.345 70.9457V120.944H88.5199H88.5195ZM96.6951 47.2817H81.4768C86.9547 40.6534 91.9136 29.2967 91.9136 29.2967H107.649C107.649 29.2967 104.955 36.6978 96.6955 47.2817H96.6951ZM48.0859 120.858V92.2883L62.5212 106.574L48.0859 120.858V120.858Z" fill="white"/>
</svg>
