<svg width="150" height="150" viewBox="0 0 150 150" fill="none" xmlns="http://www.w3.org/2000/svg">
<path fill-rule="evenodd" clip-rule="evenodd" d="M51.305 23.3368C36.2891 25.2142 24.1322 37.9503 23.131 52.8534C23.025 54.4322 22.9724 66.718 23.0145 80.1552L23.091 104.586H29.9444H36.7979L36.9003 78.9598C37.0153 50.1879 36.8731 52.0551 39.3022 47.3716C40.9678 44.1607 43.9356 41.1913 47.1399 39.53C51.7186 37.1566 51.0542 37.2357 67.3548 37.1165L81.9115 37.0098V30.0051V23L67.6534 23.0377C59.8115 23.0586 52.4546 23.1931 51.305 23.3368ZM90.2723 30.023V37.046H97.2894H104.306V30.023V23H97.2894H90.2723V30.023ZM112.966 30.023V37.046H119.983H127V30.023V23H119.983H112.966V30.023ZM112.966 52.7356V59.7586H119.983H127V52.7356V45.7126H119.983H112.966V52.7356ZM112.966 75.1494V82.1724H119.983H127V75.1494V68.1264H119.983H112.966V75.1494ZM112.966 97.5632V104.586H119.983H127V97.5632V90.5402H119.983H112.966V97.5632ZM23.0874 120.126V127H29.9552H36.823V120.126V113.253H29.9552H23.0874V120.126ZM45.4824 120.126V127H52.4994H59.5165V120.126V113.253H52.4994H45.4824V120.126ZM67.8773 120.126V127H74.8944H81.9115V120.126V113.253H74.8944H67.8773V120.126ZM90.2723 120.126V127H97.2894H104.306V120.126V113.253H97.2894H90.2723V120.126ZM112.966 120.126V127H119.983H127V120.126V113.253H119.983H112.966V120.126Z" fill="#46E3B7"/>
</svg>
